<svg id="Layer_1" data-name="Layer 1" xmlns="http://www.w3.org/2000/svg" xmlns:xlink="http://www.w3.org/1999/xlink" viewBox="0 0 422.7 207.66"><defs><style>.cls-1,.cls-10,.cls-5,.cls-6,.cls-7,.cls-8{fill:none;}.cls-2{clip-path:url(#clip-path);}.cls-3{fill:#fff;}.cls-4{fill:#666;}.cls-5{stroke:#fff;stroke-linecap:square;stroke-miterlimit:10;}.cls-10,.cls-5,.cls-8{stroke-width:1.07px;}.cls-6{stroke:#483d8b;}.cls-10,.cls-6,.cls-7,.cls-8{stroke-linejoin:round;}.cls-6,.cls-7{stroke-width:2.13px;}.cls-7{stroke:#b22222;stroke-dasharray:14.94 6.4;}.cls-10,.cls-8{stroke:#333;}.cls-8{stroke-linecap:round;}.cls-11,.cls-9{font-size:8px;font-family:Helvetica;}.cls-9{fill:#4d4d4d;}</style><clipPath id="clip-path" transform="translate(-4.35 -4.94)"><rect class="cls-1" x="25.1" y="5.48" width="401.42" height="182.36"/></clipPath></defs><g class="cls-2"><rect class="cls-3" x="20.75" y="0.54" width="401.42" height="182.36"/><rect class="cls-4" x="39" y="106.58" width="17.38" height="68.03"/><rect class="cls-5" x="39" y="106.58" width="17.38" height="68.03"/><rect class="cls-4" x="56.38" y="131.79" width="17.38" height="42.82"/><rect class="cls-5" x="56.38" y="131.79" width="17.38" height="42.82"/><rect class="cls-4" x="73.75" y="139.67" width="17.38" height="34.93"/><rect class="cls-5" x="73.75" y="139.67" width="17.38" height="34.93"/><rect class="cls-4" x="91.13" y="158.21" width="17.38" height="16.4"/><rect class="cls-5" x="91.13" y="158.21" width="17.38" height="16.4"/><rect class="cls-4" x="108.51" y="165.35" width="17.38" height="9.26"/><rect class="cls-5" x="108.51" y="165.35" width="17.38" height="9.26"/><rect class="cls-4" x="125.89" y="151.83" width="17.38" height="22.78"/><rect class="cls-5" x="125.89" y="151.83" width="17.38" height="22.78"/><rect class="cls-4" x="143.26" y="131.79" width="17.38" height="42.82"/><rect class="cls-5" x="143.26" y="131.79" width="17.38" height="42.82"/><rect class="cls-4" x="160.64" y="66.95" width="17.38" height="107.66"/><rect class="cls-5" x="160.64" y="66.95" width="17.38" height="107.66"/><rect class="cls-4" x="178.02" y="17.9" width="17.38" height="156.71"/><rect class="cls-5" x="178.02" y="17.9" width="17.38" height="156.71"/><rect class="cls-4" x="195.4" y="11.67" width="17.38" height="162.94"/><rect class="cls-5" x="195.4" y="11.67" width="17.38" height="162.94"/><rect class="cls-4" x="212.77" y="28.38" width="17.38" height="146.23"/><rect class="cls-5" x="212.77" y="28.38" width="17.38" height="146.23"/><rect class="cls-4" x="230.15" y="63.91" width="17.38" height="110.7"/><rect class="cls-5" x="230.15" y="63.91" width="17.38" height="110.7"/><rect class="cls-4" x="247.53" y="127.54" width="17.38" height="47.07"/><rect class="cls-5" x="247.53" y="127.54" width="17.38" height="47.07"/><rect class="cls-4" x="264.91" y="155.02" width="17.38" height="19.59"/><rect class="cls-5" x="264.91" y="155.02" width="17.38" height="19.59"/><rect class="cls-4" x="282.28" y="163.07" width="17.38" height="11.54"/><rect class="cls-5" x="282.28" y="163.07" width="17.38" height="11.54"/><rect class="cls-4" x="299.66" y="172.94" width="17.38" height="1.67"/><rect class="cls-5" x="299.66" y="172.94" width="17.38" height="1.67"/><rect class="cls-4" x="317.04" y="174" width="17.38" height="0.61"/><rect class="cls-5" x="317.04" y="174" width="17.38" height="0.61"/><rect class="cls-4" x="334.41" y="174.46" width="17.38" height="0.15"/><rect class="cls-5" x="334.41" y="174.46" width="17.38" height="0.15"/><path class="cls-4" d="M356.14,179.55h0Z" transform="translate(-4.35 -4.94)"/><path class="cls-5" d="M356.14,179.55h0Z" transform="translate(-4.35 -4.94)"/><path class="cls-4" d="M373.52,179.55h0Z" transform="translate(-4.35 -4.94)"/><path class="cls-5" d="M373.52,179.55h0Z" transform="translate(-4.35 -4.94)"/><path class="cls-4" d="M390.9,179.55h0Z" transform="translate(-4.35 -4.94)"/><path class="cls-5" d="M390.9,179.55h0Z" transform="translate(-4.35 -4.94)"/><polyline class="cls-6" points="47.89 132.13 48.88 129.94 49.88 127.86 50.88 125.92 51.88 124.11 52.88 122.48 53.88 121.03 54.87 119.78 55.87 118.72 56.87 117.89 57.87 117.27 58.87 116.86 59.86 116.67 60.86 116.67 61.86 116.89 62.86 117.28 63.86 117.86 64.85 118.58 65.85 119.45 66.85 120.44 67.85 121.53 68.85 122.72 69.85 123.95 70.84 125.25 71.84 126.59 72.84 127.94 73.84 129.31 74.84 130.66 75.83 132.01 76.83 133.34 77.83 134.65 78.83 135.91 79.83 137.16 80.82 138.35 81.82 139.53 82.82 140.65 83.82 141.75 84.82 142.79 85.82 143.82 86.81 144.81 87.81 145.78 88.81 146.71 89.81 147.62 90.81 148.5 91.8 149.34 92.8 150.16 93.8 150.96 94.8 151.72 95.8 152.47 96.8 153.18 97.79 153.85 98.79 154.5 99.79 155.1 100.79 155.68 101.79 156.21 102.78 156.71 103.78 157.16 104.78 157.56 105.78 157.93 106.78 158.25 107.77 158.51 108.77 158.74 109.77 158.91 110.77 159.06 111.77 159.13 112.77 159.18 113.76 159.16 114.76 159.1 115.76 159 116.76 158.87 117.76 158.69 118.75 158.46 119.75 158.19 120.75 157.88 121.75 157.53 122.75 157.16 123.74 156.72 124.74 156.26 125.74 155.78 126.74 155.24 127.74 154.66 128.74 154.06 129.73 153.41 130.73 152.69 131.73 151.96 132.73 151.18 133.73 150.34 134.72 149.47 135.72 148.53 136.72 147.56 137.72 146.51 138.72 145.43 139.72 144.26 140.71 143.04 141.71 141.75 142.71 140.41 143.71 138.99 144.71 137.5 145.7 135.94 146.7 134.29 147.7 132.59 148.7 130.79 149.7 128.94 150.69 127 151.69 124.97 152.69 122.89 153.69 120.7 154.69 118.47 155.69 116.14 156.68 113.75 157.68 111.28 158.68 108.73 159.68 106.13 160.68 103.45 161.67 100.72 162.67 97.94 163.67 95.08 164.67 92.19 165.67 89.25 166.66 86.28 167.66 83.27 168.66 80.22 169.66 77.17 170.66 74.09 171.66 71 172.65 67.92 173.65 64.84 174.65 61.78 175.65 58.73 176.65 55.73 177.64 52.74 178.64 49.81 179.64 46.94 180.64 44.13 181.64 41.37 182.63 38.7 183.63 36.1 184.63 33.59 185.63 31.18 186.63 28.88 187.63 26.68 188.62 24.59 189.62 22.61 190.62 20.75 191.62 19.02 192.62 17.43 193.61 15.96 194.61 14.63 195.61 13.43 196.61 12.37 197.61 11.45 198.61 10.65 199.6 10.02 200.6 9.51 201.6 9.13 202.6 8.91 203.6 8.82 204.59 8.88 205.59 9.05 206.59 9.38 207.59 9.84 208.59 10.41 209.58 11.13 210.58 11.97 211.58 12.94 212.58 14.03 213.58 15.23 214.58 16.55 215.57 18 216.57 19.55 217.57 21.2 218.57 22.95 219.57 24.8 220.56 26.75 221.56 28.77 222.56 30.89 223.56 33.09 224.56 35.37 225.55 37.7 226.55 40.1 227.55 42.56 228.55 45.09 229.55 47.66 230.55 50.27 231.54 52.92 232.54 55.62 233.54 58.34 234.54 61.09 235.54 63.88 236.53 66.67 237.53 69.48 238.53 72.31 239.53 75.14 240.53 77.97 241.53 80.81 242.52 83.64 243.52 86.44 244.52 89.25 245.52 92.03 246.52 94.8 247.51 97.53 248.51 100.23 249.51 102.89 250.51 105.53 251.51 108.11 252.5 110.64 253.5 113.13 254.5 115.56 255.5 117.94 256.5 120.27 257.5 122.53 258.49 124.72 259.49 126.86 260.49 128.93 261.49 130.94 262.49 132.88 263.48 134.75 264.48 136.54 265.48 138.28 266.48 139.96 267.48 141.56 268.47 143.1 269.47 144.59 270.47 146 271.47 147.34 272.47 148.63 273.47 149.85 274.46 151.03 275.46 152.15 276.46 153.21 277.46 154.21 278.46 155.16 279.45 156.07 280.45 156.94 281.45 157.75 282.45 158.53 283.45 159.26 284.45 159.97 285.44 160.65 286.44 161.28 287.44 161.88 288.44 162.47 289.44 163.03 290.43 163.56 291.43 164.09 292.43 164.59 293.43 165.06 294.43 165.53 295.42 165.97 296.42 166.41 297.42 166.84 298.42 167.25 299.42 167.66 300.42 168.04 301.41 168.43 302.41 168.79 303.41 169.16 304.41 169.5 305.41 169.82 306.4 170.15 307.4 170.46 308.4 170.75 309.4 171.03 310.4 171.29 311.39 171.56 312.39 171.79 313.39 172.01 314.39 172.22 315.39 172.43 316.39 172.6 317.38 172.78 318.38 172.93 319.38 173.07 320.38 173.21 321.38 173.31 322.37 173.43 323.37 173.51 324.37 173.6 325.37 173.69 326.37 173.75 327.36 173.81 328.36 173.87 329.36 173.91 330.36 173.96 331.36 174 332.36 174.03 333.35 174.06 334.35 174.09 335.35 174.12 336.35 174.15 337.35 174.16 338.34 174.19 339.34 174.21 340.34 174.22 341.34 174.25 342.34 174.26 343.34 174.28 344.33 174.31 345.33 174.32 346.33 174.34 347.33 174.35 348.33 174.38 349.32 174.4 350.32 174.41 351.32 174.43 352.32 174.44 353.32 174.46 354.31 174.47 355.31 174.49 356.31 174.5 357.31 174.5 358.31 174.51 359.31 174.53 360.3 174.53 361.3 174.54 362.3 174.56 363.3 174.56 364.3 174.56 365.29 174.56 366.29 174.57 367.29 174.57 368.29 174.59 369.29 174.59 370.28 174.59 371.28 174.59 372.28 174.59 373.28 174.59 374.28 174.59 375.28 174.59 376.27 174.6 377.27 174.6 378.27 174.6 379.27 174.6 380.27 174.6 381.26 174.6 382.26 174.6 383.26 174.6 384.26 174.6 385.26 174.6 386.26 174.6 387.25 174.6 388.25 174.6 389.25 174.6 390.25 174.6 391.25 174.6 392.24 174.6 393.24 174.6 394.24 174.6 395.24 174.6 396.24 174.6 397.23 174.6 398.23 174.6"/><line class="cls-7" x1="112.77" y1="182.9" x2="112.77" y2="0.54"/><rect class="cls-8" x="20.75" y="0.54" width="401.42" height="182.36"/></g><text class="cls-9" transform="translate(11.37 177.47)">0</text><text class="cls-9" transform="translate(11.37 135.09)">1</text><text class="cls-9" transform="translate(11.37 92.68)">2</text><text class="cls-9" transform="translate(11.37 50.28)">3</text><text class="cls-9" transform="translate(11.37 7.89)">4</text><line class="cls-10" x1="18.01" y1="174.61" x2="20.75" y2="174.61"/><line class="cls-10" x1="18.01" y1="132.22" x2="20.75" y2="132.22"/><line class="cls-10" x1="18.01" y1="89.82" x2="20.75" y2="89.82"/><line class="cls-10" x1="18.01" y1="47.42" x2="20.75" y2="47.42"/><line class="cls-10" x1="18.01" y1="5.03" x2="20.75" y2="5.03"/><line class="cls-10" x1="47.69" y1="185.64" x2="47.69" y2="182.9"/><line class="cls-10" x1="150.35" y1="185.64" x2="150.35" y2="182.9"/><line class="cls-10" x1="253.02" y1="185.64" x2="253.02" y2="182.9"/><line class="cls-10" x1="355.68" y1="185.64" x2="355.68" y2="182.9"/><text class="cls-9" transform="translate(39.9 194.46)">0.00</text><text class="cls-9" transform="translate(142.57 194.46)">0.25</text><text class="cls-9" transform="translate(245.23 194.46)">0.50</text><text class="cls-9" transform="translate(347.9 194.46)">0.75</text><text class="cls-11" transform="translate(205.9 203.81)">Distance</text><text class="cls-11" transform="translate(6.87 105.05) rotate(-90)">Density</text></svg>